# xmcd
#
# Track frame offsets: 
#        150
#        13470
#        27164
#        39142
#        52200
#        65800
#        80522
#        93970
#        97550
#        111500
#        125210
#        136500
#        151469
#        165147
#        178170
#        190526
#        204424
#        215050
#        224500
#
# Disc length: 3140 seconds
#
# Revision: 2
# Processed by: cddbd v1.5.2PL0 Copyright (c) Steve Scherf et al.
# Submitted via: ExactAudioCopy v1.0b3
#
DISCID=0a0c4213
DTITLE=Various Artist - Bebop CD024  Charlie Parker 1946-47
DYEAR=1946
DGENRE=Jazz
TTITLE0=Charlie Parker Septet - Moose The Mooche
TTITLE1=Charlie Parker Septet - Moose The Mooche
TTITLE2=Charlie Parker Septet - Yardbird Suite
TTITLE3=Charlie Parker Septet - Yardbird Suite
TTITLE4=Charlie Parker Septet - Ornithology
TTITLE5=Charlie Parker Septet - Ornithology (Bird Lore)
TTITLE6=Charlie Parker Septet - Ornithology
TTITLE7=Charlie Parker Septet - Famous Alto Break
TTITLE8=Charlie Parker Septet - A Night In Tunisia
TTITLE9=Charlie Parker Septet - A Night In Tunisia
TTITLE10=Charlie Parker Quintet - Max Is Making Wax
TTITLE11=Charlie Parker Quintet - Lover Man
TTITLE12=Charlie Parker Quintet - The Gypsy
TTITLE13=Charlie Parker Quintet - Be-Bop
TTITLE14=Howard McGhee - Trumpet At Tempo
TTITLE15=Howard McGhee - Thermo-dynamics
TTITLE16=Chuck Copely Jam Session - Home Cookin' I (Opus)
TTITLE17=Chuck Copely Jam Session - Home Cookin' II (Cherokee)
TTITLE18=Chuck Copely Jam Session - Home Cookin' III (I Got Rhythm)
EXTD=YEAR: 2008
EXTT0=
EXTT1=
EXTT2=
EXTT3=
EXTT4=
EXTT5=
EXTT6=
EXTT7=
EXTT8=
EXTT9=
EXTT10=
EXTT11=
EXTT12=
EXTT13=
EXTT14=
EXTT15=
EXTT16=
EXTT17=
EXTT18=
PLAYORDER=
